<svg width="1920" height="1071" viewBox="0 0 1920 1071" fill="none" xmlns="http://www.w3.org/2000/svg">
<rect y="-3" width="1920" height="1073" fill="url(#paint0_linear_42_531)"/>
<mask id="mask0_42_531" style="mask-type:alpha" maskUnits="userSpaceOnUse" x="-2" y="-2" width="1920" height="1073">
<rect x="-2" y="-2" width="1920" height="1073" fill="url(#paint1_linear_42_531)"/>
</mask>
<g mask="url(#mask0_42_531)">
<g opacity="0.54">
<g opacity="0.08">
<path d="M687.17 1293.8H609.237C601.21 1280.69 588 1287.18 577.36 1286.23C499.226 1279.21 420.935 1267.36 360.13 1214.72C328.044 1186.94 294.631 1167.3 256.599 1151.62C225.228 1138.68 194.379 1123.99 164.659 1107.6C80.666 1061.28 17.4824 994.313 -20.916 906.298C-44.252 852.813 -73.1387 801.753 -86.126 743.397C-94.5459 705.558 -113.398 670.054 -127.577 633.502C-127.577 595.637 -127.577 557.769 -127.577 519.904C-124.751 516.115 -122.441 509.786 -118.989 509.079C-112.244 507.701 -114.945 514.574 -114.005 518.329C-110.375 532.833 -125.603 558.007 -105.514 560.176C-87.2344 562.149 -86.834 577.104 -75.7939 584.414C-66.4756 563.882 -76.3125 541.39 -60.2373 518.205C-53.9561 562.25 -74.0869 601.05 -52.957 641.467C-32.7842 599.051 -40.21 547.174 0.894531 507.477C-0.666016 581.811 2.97852 647.452 -1.30371 713.271C-6.46387 792.573 13.9092 864.522 65.8926 925.884C77.8506 920.467 79.1553 910.059 83.5244 902.087C112.292 849.59 119.181 790.461 134.638 733.817C153.671 664.065 197.06 613.779 265.854 587.804C283.383 581.184 296.81 577.23 294.245 606.714C291.859 634.163 300.88 661.468 312.214 688.991C235.357 668.721 235.357 668.721 218.493 679.224C294.198 692.233 336.256 746.34 380.322 799.861C400.018 823.782 416.353 854.454 457.535 869.905C429.985 835.772 408.083 809.626 387.502 782.474C382.057 775.289 368.243 766.758 378.923 756.345C388.569 746.937 393.66 762.731 401.344 765.426C460.783 786.274 515.497 821.449 585.227 803.502C677.549 779.742 734.244 723.225 764.299 635.418C767.82 625.128 761.417 607.325 776.663 606.084C791.997 604.837 794.223 623.246 799.304 634.069C851.735 745.796 857.452 863.794 843.839 984.024C841.918 1000.99 778.217 1025.99 765.262 1013.51C741.794 990.898 709.856 978.187 693.72 946.364C684.431 928.047 667.643 912.926 652.232 898.513C634.85 882.255 577.317 885.739 551.893 902.43C528.163 918.008 543.86 938.072 544.898 956.857C545.444 966.732 554.618 976.202 547.374 986.635C506.268 980 465.878 972.285 425.157 967.303C394.867 963.598 375.746 982.516 385.375 1011.11C395.708 1041.8 393.35 1073.7 402.531 1104.08C410.773 1131.34 420.214 1157.27 440.808 1177.9C447.489 1184.59 450.532 1196.14 462.954 1194.46C465.491 1194.12 469.762 1190.21 469.54 1188.4C467.714 1173.64 449.507 1187.8 444.345 1170.7C480.845 1157.91 520.79 1172.92 566.067 1159.48C552.781 1155.33 548.782 1153.17 544.68 1152.95C516.414 1151.45 488.06 1151.17 459.871 1148.84C441.746 1147.34 423.536 1134.32 426.523 1118.63C430.5 1097.77 450.081 1113.68 461.005 1116.39C499.722 1126 538.356 1130.71 581.065 1129.77C572.353 1115.04 562.014 1117.51 553.224 1115.94C513.844 1108.9 474.398 1102.21 435.096 1094.75C425.393 1092.91 416.514 1086.92 420.124 1075.44C423.812 1063.71 435.378 1063.94 443.954 1067.84C474.528 1081.72 508.166 1079.24 539.95 1086.73C552.585 1089.71 567.699 1096.74 591.512 1086.07C569.783 1080.55 556.832 1077.17 543.835 1073.98C505.032 1064.45 466.22 1054.97 427.399 1045.52C413.17 1042.05 403.656 1033.53 404.208 1018.53C404.723 1004.58 417.91 1009.37 425.962 1006.74C459.629 995.72 490.345 1011.72 521.878 1018.13C543.296 1022.48 570.21 1042.2 584.269 1029.33C599.946 1014.97 575.644 991.563 569.566 971.955C561.57 946.153 565.385 930.528 594.46 921.199C639.186 906.85 651.516 944.663 669.474 967.288C693.871 998.025 711.009 1033.79 741.648 1060.8C781.045 1095.53 788.854 1097.18 827.372 1058.58C834.042 1051.9 841.216 1045.57 846.96 1038.15C857.561 1024.45 865.25 1027.9 873.443 1040.57C887.215 1061.87 902.515 1082.23 915.309 1104.08C920.284 1112.58 925.101 1118.43 933.838 1114.4C942.103 1110.6 938.227 1102.22 935.881 1095.6C924.956 1064.77 906.859 1038.37 880.957 1019.05C866.264 1008.09 862.95 996.782 865.305 979.972C875.046 910.379 873.354 840.532 862.59 771.432C852.238 704.984 839.816 638.291 787.512 588.656C789.758 586.776 792.002 584.896 794.249 583.016C863.537 623.155 937.754 647.015 1017.15 659.161C1088.66 670.099 1152.42 645.688 1180.78 585.486C1206.93 529.995 1219.13 470.844 1210.15 409.819C1201.88 353.642 1185.02 297.152 1126.83 274.549C1013.57 230.56 901.743 229.963 797.278 303.203C764.945 325.872 746.085 357.74 730.937 392.903C726.755 402.608 723.076 421.241 707.672 405.737C668.862 366.678 620.919 360.954 570.224 364.219C551.045 365.453 545.97 359.096 548.236 340.206C555.553 279.278 547.953 220.739 512.896 167.125C589.281 149.114 629.435 94.3925 662.114 22.9062C674.622 96.7118 716.034 141.298 769.709 171.947C824.749 203.376 890.259 201.514 947.398 187.692C1059.3 160.625 1113.42 37.2889 1074.74 -82.4513C1056.98 -137.455 1011.31 -167.762 963.905 -191.322C875.024 -235.5 788.215 -232.099 708.812 -161.725C722.489 -192.145 730.433 -222.563 751.721 -244.417C767.506 -260.622 789.633 -242.07 808.346 -248.545C812.682 -250.045 817.09 -251.397 821.549 -252.471C853.589 -260.19 887.942 -253.041 913.049 -240.311C946.324 -223.438 972.378 -193.311 1015.18 -202.614C1017.95 -203.214 1023.48 -198.276 1025.35 -194.675C1061.68 -124.713 1125.8 -80.2696 1181.43 -28.9425C1201.53 -10.3898 1223.61 13.5321 1252.06 20.1259C1285.91 27.9687 1289.7 52.1093 1296.39 77.9774C1281.57 82.164 1277.72 71.2089 1270.95 65.7108C1238.07 39.0058 1207.34 9.54382 1171.16 -12.9444C1165.25 -16.6124 1158.62 -21.7667 1153.01 -13.1495C1147.18 -4.2003 1155.9 -1.45615 1160.95 2.56827C1183.5 20.5546 1205.22 39.7235 1228.78 56.2489C1311.74 114.418 1379.36 183.849 1411.78 283.528C1429.27 337.304 1452.78 389.109 1473.58 441.804V498.603C1464.96 502.036 1467.02 510.083 1466.29 516.553C1460.67 566.612 1457.13 616.982 1449.47 666.719C1437.87 742.02 1398.65 806.224 1362.34 871.345C1362.17 874.514 1360.63 879.313 1362.09 880.527C1365.6 883.46 1367.56 879.628 1369.06 876.65C1391.32 859.208 1398.02 830.078 1419.02 805.881C1396.65 938.446 1224.61 1094.93 1135.34 1095.84C1148.14 1035.98 1165.95 976.669 1154.13 914.016C1140.15 963.279 1128.1 1012.95 1121.45 1063.34C1118.26 1087.48 1106.6 1102.78 1089.16 1114.24C1019.47 1160.02 946.113 1193.81 859.688 1195.37C805.291 1196.35 751.928 1182.22 697.572 1188.79C656.293 1193.79 615.594 1189.01 574.439 1184.03C538.815 1179.71 502.257 1183.13 466.112 1183.13C478.952 1191.92 483.162 1211.73 501.305 1204.62C532.176 1192.53 562.369 1197.09 593.965 1206.17C625.319 1215.18 657.669 1221.55 691.861 1212.8C714.21 1207.09 739.136 1206.82 762.228 1209.65C811.142 1215.66 859.631 1223.07 908.722 1212.11C919.345 1209.74 928.102 1213.95 938.258 1223.11C906.278 1245.28 871.92 1256.65 837.092 1264.73C787.535 1276.23 737.183 1284.27 687.17 1293.8ZM1357.87 681.155C1338.53 709.198 1319.26 737.291 1299.84 765.27C1280.06 793.755 1255.74 817.444 1226.09 835.635C1217.27 841.048 1209.85 844.95 1202.23 833.654C1193.96 821.383 1204.85 821.096 1211.12 816.61C1247.03 790.914 1276.65 758.566 1302.13 722.985C1328.28 686.463 1350.15 647.248 1361.33 595.468C1329.32 618.849 1303.27 636.975 1278.43 656.651C1272.09 661.675 1268.17 665.487 1260.95 660.266C1253.19 654.652 1252.03 646.998 1254.09 638.225C1256.28 628.959 1264.52 625.353 1271.2 621.258C1329.62 585.467 1353.72 519.192 1401.54 473.917C1407.11 468.643 1406.35 456.27 1407.8 447.073C1422.28 355.148 1395.18 285.61 1303.1 250.286C1288.95 244.857 1276.19 235.798 1262.78 228.413C1172.38 178.609 1078.07 200.785 984.333 213.526C983.092 213.695 982.342 217.492 978.936 224.813C1032.92 209.539 1084.93 229.511 1137.03 215.592C1159.13 209.688 1184.9 212.219 1205.72 225.539C1246.05 251.344 1281.6 283.046 1311.69 320.416C1331.08 344.477 1336.5 370.117 1327.03 401.75C1305.7 472.959 1265.36 533.661 1227.87 596.241C1198.49 645.277 1210.92 668.305 1272.32 673.105C1243.81 713.066 1216.5 750.912 1189.73 789.138C1181.71 800.578 1172.42 812.455 1177.96 828.057C1197.86 884.038 1269.22 929.018 1319 923.244C1324.33 863.757 1381.22 826.703 1382.26 769.18C1359.4 814.198 1332.39 856.097 1300.09 894.42C1293.38 902.379 1287.67 917.611 1272.79 903.978C1259.3 891.61 1273.45 884.924 1279.22 878.185C1303.82 849.447 1329.47 821.344 1347.97 788.24C1359.64 767.374 1377.33 748.322 1378.61 712.99C1365.89 730.132 1358.26 740.247 1350.8 750.486C1323.65 787.751 1296.25 824.845 1262.83 856.844C1255.59 863.768 1245.17 875.751 1236.31 864.381C1228.67 854.58 1244.04 850.177 1250.18 844.27C1297.98 798.261 1342.28 749.881 1360.6 683.546C1361.91 682.49 1363.23 681.432 1364.54 680.375C1361.95 677.496 1359.75 677.951 1357.87 681.155ZM1130.93 681.416C1130.16 678.471 1129.39 675.525 1128.62 672.581C1080.78 686.601 1032.98 700.8 985.061 714.571C959.489 721.92 934.855 723.546 911.614 705.581C902.717 698.701 890.533 680.648 880.089 695.102C871.822 706.542 894.557 713.419 899.06 724.987C902.116 732.839 908.052 730.066 913.272 731.093C994.067 746.968 1060.01 704.389 1130.93 681.416ZM1160.55 750.433C1143.45 795.855 1148.44 841.786 1155.41 887.801C1162.73 842.178 1159.28 796.144 1160.55 750.433Z" fill="#E4E4E4"/>
<path d="M318.232 620.634C313.74 554.778 341.941 517.865 374.322 485.464C426.709 433.047 489.524 394.323 562.518 380.881C620.579 370.189 684.325 388.255 717.928 453.05C767.329 548.304 763.015 636.948 700.835 713.872C655.534 769.919 595.888 792.493 525.814 785.744C457.808 779.192 400.671 746.45 350.791 701.519C321.929 675.519 317.499 656.837 318.232 620.634ZM373.983 565.55C347.66 603.821 351.74 629.817 383.314 650.651C426.22 678.96 462.622 676.575 484.996 641.441C512.336 598.506 527.124 549.579 545.496 502.533C555.154 477.8 567.737 479.209 584.212 493.177C598.444 505.242 602.074 518.523 592.499 537.27C573.179 575.086 545.692 608.131 530.177 648.107C510.192 699.601 529.954 734.23 584.208 741.074C622.267 745.873 628.691 739.6 640.084 686.493C647.258 653.057 633.442 626.856 599.8 619.963C571.954 614.258 578.044 601.005 591.755 590.409C638.211 554.506 617.99 489.058 655.874 449.988C656.328 449.522 655.735 447.618 655.174 446.653C647.398 433.269 638.415 419.738 623.652 414.793C610.108 410.259 593.436 410.997 586.641 426.385C579.365 442.865 565.44 449.916 552.409 459.154C534.556 471.809 521.884 488.118 516.467 509.979C511.509 529.983 505.26 549.664 497.681 576.114C475.435 544.38 452.739 521.697 417.268 546.186C395.438 561.256 380.455 580.44 390.999 608.736C405.564 647.815 438.466 635.842 472.816 630.915C451.795 656.911 430.849 654.537 408.905 647.654C365.998 634.195 372.794 599.03 373.983 565.55Z" fill="#E4E4E4"/>
<path d="M1190.44 461.781C1190.09 466.395 1190.45 479.596 1187.89 492.203C1154.04 659.153 1103.84 651.173 980.31 631.884C953.797 627.743 927.975 618.797 902.04 611.35C846.012 595.259 802.58 567.972 792.649 502.915C788.881 478.229 776.094 453.508 762.282 432.136C744.747 405.007 752.695 384.525 768.734 361.682C811.147 301.276 873.468 275.156 942.192 264.905C980.129 259.247 1020.27 260.868 1058.47 266.101C1144.87 277.935 1191.11 345.969 1190.44 461.781ZM1068.88 500.52C1034.56 519.667 1022.02 554.761 1039.88 580.345C1055.05 602.069 1076.68 617.528 1103.42 606.512C1132.39 594.579 1141.02 545.697 1121.49 516.769C1115.08 507.265 1106.14 498.833 1096.79 492.079C1072.47 474.505 1044.89 465.095 1014.85 463.007C996.054 461.699 977.304 459.721 958.505 458.46C930.209 456.56 944.519 436.494 945.177 424.304C946.069 407.807 957.584 406.821 970.541 413.04C995.914 425.217 1025.08 431.531 1047.86 445.566C1078.34 464.341 1099.5 453.224 1120.27 437.034C1147.67 415.676 1146.09 385.611 1133.15 356.701C1121.37 330.374 1103.37 311.337 1069.71 314.352C1071.54 334.721 1093.74 328.987 1096.11 346.214C1076.16 346.977 1054.56 333.802 1037.58 353.758C1020.47 373.867 1035.09 396.429 1032.99 417.89C1015.02 418.441 1002.28 409.233 988.805 403.037C922.72 372.661 922.051 372.951 920.246 447.201C919.907 461.171 916.558 479.779 934.389 482.227C958.659 485.561 979.431 504.528 1008.16 492.69C1024.61 485.914 1047.72 488.434 1068.88 500.52ZM882.577 406.124C883.004 390.993 891.534 378.048 876.168 374.051C865.272 371.217 856.748 379.705 849.686 387.994C832.031 408.72 832.807 432.855 836.01 457.773C838.624 478.099 853.557 486.08 869.828 485.918C889.809 485.722 892.447 467.44 891.261 452.128C889.923 434.874 884.925 417.907 882.577 406.124Z" fill="#E4E4E4"/>
<path d="M874.629 173.494C782.444 174.216 710.102 126.923 687.711 51.2663C659.404 -44.3772 686.452 -129.241 765.179 -178.329C811.323 -207.099 859.992 -211.97 914.029 -190.421C967.76 -168.996 1019.33 -148.597 1047.97 -94.49C1096.51 -2.80399 1063.53 169.806 899.39 172.462C891.132 172.595 882.882 173.166 874.629 173.494ZM908.579 -111.332C901.832 -117.109 905.893 -124.16 905.991 -130.902C906.529 -168.124 883.93 -190.068 846.394 -188.93C820.336 -188.142 808.795 -169.01 797.565 -149.625C784.759 -127.519 811.51 -129.896 816.924 -118.739C826.428 -99.1551 850.753 -109.076 866.699 -98.5735C856.557 -85.4529 847.548 -74.6516 839.463 -63.1931C801.248 -9.03494 809.628 9.43185 875.538 15.1169C898.286 17.0798 914.53 9.8176 917.008 -17.0667C918.406 -32.2307 913.089 -49.3758 924.372 -63.906C963.478 -30.6057 970.142 -31.0086 1015.7 -72.7581C1027.85 -83.8909 1020.13 -96.3767 1013.04 -107.333C992.924 -138.419 973.49 -139.096 908.579 -111.332ZM913.544 45.2678C889.234 47.5671 877.046 37.9538 863.238 33.5271C849.262 29.0471 833.37 29.7234 818.314 29.7024C802.384 29.6804 797.751 34.676 808.078 50.675C825.679 77.9475 865.682 79.0007 913.544 45.2678Z" fill="#E4E4E4"/>
<path d="M242.465 256.107C245.217 220.624 232.28 205.718 201.934 207.825C187.317 208.838 169.406 204.068 165.628 192.664C161.218 179.352 180.27 173.619 190.603 168.331C233.889 146.18 276.964 129.569 328.453 125.735C383.368 121.647 426.775 132.728 471.089 161.803C523.279 196.043 556.806 299.732 528.439 354.775C522.08 367.11 509.787 374.96 496.859 381.719C440.486 411.197 385.4 442.199 339.893 488.498C312.093 516.783 247.976 514.431 216.207 484.71C163.414 435.319 136.582 372.121 127.507 301.016C126.36 292.031 123.893 281.094 134.076 275.393C144.676 269.458 146.092 283.417 152.916 285.84C174.667 293.564 197.222 294.365 218.081 285.031C245.878 272.592 272.495 257.491 299.519 243.342C309.172 238.287 318.092 233.815 328.28 243.053C334.466 248.661 335.015 255.171 334.434 262.128C333.251 276.29 320.877 272.81 312.679 274.557C286.22 280.196 259.387 284.66 234.709 296.223C207.746 308.857 188.672 328.703 184.132 359.504C180.34 385.225 190.81 404.802 215.187 412.17C237.285 418.848 258.557 421.958 275.475 394.698C290.677 370.204 308.773 352.416 279.199 325.731C268.693 316.252 283.542 310.781 292.21 308.001C313.406 301.205 334.99 295.54 355.943 288.083C382.803 278.524 377.34 260.332 368.762 239.833C360.713 220.593 354.311 206.668 328.098 216.133C300.481 226.104 274.483 239.157 242.465 256.107ZM417.968 271.823C453.769 224.762 449.161 201.401 401.42 186.978C404.877 215.694 402.345 244.843 417.968 271.823Z" fill="#E4E4E4"/>
<path d="M308.78 527.869C304.252 554.879 290.61 563.466 266.535 569.062C181.856 588.747 145.005 655.494 119.764 730.721C111.586 755.087 110.458 781.581 98.8762 805.181C95.7678 811.514 94.7219 818.89 85.133 818.062C77.8147 817.431 75.6985 811.55 73.4553 806.386C59.427 774.094 47.2346 742.977 50.5363 704.941C56.676 634.216 56.9553 563.1 7.0383 502.939C-7.50662 485.408 -6.94217 461.103 -7.65116 438.499C-8.26053 419.081 -3.01639 397.43 -24.6619 384.475C-29.8181 381.39 -28.4139 377.152 -26.866 372.464C-6.06717 309.501 11.9504 244.724 83.6184 218.141C93.3381 214.536 101.717 207.97 112.765 214.359C126.38 222.233 114.736 230.999 113.722 238.886C101.443 334.442 127.248 417.721 192.042 489.054C223.524 523.715 263.402 532.313 308.78 527.869Z" fill="#E4E4E4"/>
<path d="M473.806 -115.922C512.016 -124.298 526.148 -143.557 532.291 -182.937C533.768 -192.397 546.441 -200.05 561.379 -192.709C645.715 -151.253 660.186 -105.422 651.013 -18.4969C643.58 51.9581 605.889 104.04 543.931 138.482C519.529 152.046 497.818 154.131 471.577 138.085C431.123 113.348 386.386 97.9816 337.397 100.765C328.206 101.287 318.052 102.872 311.111 94.1637C266.828 38.6212 229.142 -46.7992 295.79 -112.562C298.046 -114.789 301.304 -115.996 304.056 -117.654C306.178 -115.292 309.069 -113.422 308.831 -112.137C305.611 -94.8548 297.47 -72.8329 316.095 -63.9364C334.746 -55.0272 358.959 -44.7972 379.475 -62.9696C397.785 -79.1869 408.9 -76.2259 417.997 -53.9974C425.116 -36.5956 435.192 -12.1288 452.415 -13.2079C478.501 -14.8426 502.403 -32.2425 524.47 -47.9769C536.028 -56.2201 526.59 -65.431 521.684 -72.3876C510.039 -88.9017 494.15 -101.29 473.806 -115.922ZM550.073 -11.5819C520.142 -13.6097 495.648 -7.51207 473.765 6.80775C464.706 12.734 450.802 20.3639 457.582 33.6583C463.188 44.652 477.221 44.5866 489.199 42.4118C518.82 37.0348 540.706 22.4977 550.073 -11.5819Z" fill="#E4E4E4"/>
<path d="M-100.283 327.955C-94.5723 307.526 -90.3652 285.392 -82.2031 264.833C-67.4902 227.773 -48.8486 192.253 -34.6934 155.003C-14.3408 101.452 28.1162 79.1549 79.6455 68.2696C114.081 60.9962 137.227 82.316 160.631 102.183C162.216 103.528 163.233 106.165 163.515 108.332C165.794 125.851 201.041 128.048 189.875 142.503C174.783 162.039 154.807 182.264 125.831 186.825C44.9707 199.554 -9.37793 242.695 -27.623 325.479C-28.8848 331.204 -28.7344 337.72 -31.5254 342.54C-41.1572 359.175 -45.6992 387.338 -68.7549 383.753C-94.2646 379.783 -92.7686 350.119 -100.283 327.955Z" fill="#E4E4E4"/>
<path d="M91.3818 45.9219C137.107 -11.0937 187.661 -55.0888 236.48 -100.773C241.971 -105.913 248.31 -109.178 255.413 -104.28C259.748 -101.29 259.972 -96.706 257.545 -91.8847C221.03 -19.3583 252.565 41.942 291.991 104.836C270.576 112.787 250.34 120.124 230.24 127.815C213.87 134.081 206.892 120.745 198.107 112.248C168.651 83.7559 139.72 54.6856 91.3818 45.9219Z" fill="#E4E4E4"/>
<path d="M22.7095 73.257C5.19289 72.4978 6.6968 64.8391 13.2945 55.0573C26.4068 35.6179 38.4077 15.3054 52.8423 -3.09209C89.2857 -49.5364 134.838 -87.0921 176.011 -128.825C197.526 -150.632 210.443 -129.561 226.878 -131.017C236.487 -131.868 229.35 -118.962 225.873 -115.216C214.72 -103.196 202.507 -92.0584 189.961 -81.4637C148.554 -46.4959 107.756 -10.7571 78.2866 35.3342C64.2349 57.3117 41.7456 63.3474 22.7095 73.257Z" fill="#E4E4E4"/>
<path d="M279.83 353.702C273.455 371.881 262.756 385.401 242.163 384.269C228.621 383.525 220.821 372.808 222.317 360.157C225.244 335.424 245.939 339.711 262.898 337.547C276.611 335.798 278.213 344.229 279.83 353.702Z" fill="#E4E4E4"/>
<path d="M228.482 242.012C224.498 256.765 212.453 261.463 199.049 261.028C187.932 260.668 177.666 254.278 178.565 241.549C180.011 221.018 200.329 229.339 211.339 223.974C218.085 220.688 228.117 229.98 228.482 242.012Z" fill="#E4E4E4"/>
<path d="M787.512 588.656C769.071 575.004 762.951 551.614 772.116 510.071C781.284 540.29 787.767 561.653 794.249 583.015C792.002 584.897 789.758 586.776 787.512 588.656Z" fill="#E4E4E4"/>
<path d="M473.701 579.373C467.609 603.353 457.393 622.229 432.823 623.613C416.33 624.543 402.292 614.745 404.667 595.809C407.43 573.781 417.093 555.472 443.657 554.49C462.547 553.793 466.216 569.343 473.701 579.373Z" fill="#E4E4E4"/>
<path d="M567.099 671.833C569.839 656.177 573.616 634.936 589.972 637.303C603.917 639.322 624.173 650.221 623.829 672.844C623.548 691.228 614.813 707.75 596.908 708.566C575.286 709.552 570.621 689.429 567.099 671.833Z" fill="#E4E4E4"/>
<path d="M1066.36 357.497C1078.16 370.132 1106.35 367.537 1103.95 393.754C1103.01 404.019 1097.19 418.803 1079.08 415.053C1058.77 410.844 1044.49 399.435 1042.12 379.103C1040.58 365.832 1052.37 359.689 1066.36 357.497Z" fill="#E4E4E4"/>
<path d="M1047.73 540.822C1048.14 533.978 1052.17 519.291 1068.15 521.011C1083.42 522.655 1095.01 533.932 1093.36 552.272C1091.94 568.027 1083.1 581.762 1067.81 580.3C1052.54 578.841 1046.8 563.544 1047.73 540.822Z" fill="#E4E4E4"/>
</g>
</g>
</g>
<defs>
<linearGradient id="paint0_linear_42_531" x1="3180" y1="2324.16" x2="500" y2="2324.16" gradientUnits="userSpaceOnUse">
<stop stop-color="#0E7615"/>
<stop offset="1" stop-color="#004F2B"/>
</linearGradient>
<linearGradient id="paint1_linear_42_531" x1="3178" y1="2325.16" x2="498" y2="2325.16" gradientUnits="userSpaceOnUse">
<stop stop-color="#0E7615"/>
<stop offset="1" stop-color="#004F2B"/>
</linearGradient>
</defs>
</svg>
