<svg width="1920" height="1077" viewBox="0 0 1920 1077" fill="none" xmlns="http://www.w3.org/2000/svg">
<rect y="-1" width="1920" height="1078" fill="white"/>
<mask id="mask0_42_570" style="mask-type:alpha" maskUnits="userSpaceOnUse" x="0" y="-1" width="1920" height="1078">
<rect y="-1" width="1920" height="1078" fill="white"/>
</mask>
<g mask="url(#mask0_42_570)">
<g opacity="0.08">
<path d="M1504.15 1252.6H1447.31C1441.46 1243.04 1431.83 1247.77 1424.07 1247.07C1367.09 1241.96 1310 1233.32 1265.66 1194.93C1242.26 1174.67 1217.89 1160.35 1190.16 1148.92C1167.28 1139.48 1144.78 1128.77 1123.11 1116.82C1061.86 1083.04 1015.78 1034.2 987.782 970.016C970.765 931.013 949.699 893.778 940.228 851.222C934.088 823.629 920.34 797.737 910 771.082C910 743.469 910 715.855 910 688.242C912.061 685.479 913.745 680.863 916.263 680.348C921.182 679.343 919.212 684.355 919.898 687.093C922.545 697.67 911.44 716.028 926.09 717.61C939.42 719.049 939.712 729.955 947.763 735.285C954.558 720.312 947.385 703.91 959.107 687.003C963.688 719.122 949.008 747.417 964.416 776.89C979.127 745.959 973.712 708.128 1003.69 679.18C1002.55 733.387 1005.21 781.255 1002.08 829.253C998.321 887.083 1013.18 939.551 1051.09 984.299C1059.81 980.348 1060.76 972.759 1063.94 966.945C1084.92 928.662 1089.95 885.543 1101.22 844.236C1115.1 793.37 1146.74 756.699 1196.91 737.757C1209.69 732.93 1219.48 730.047 1217.61 751.547C1215.87 771.564 1222.45 791.476 1230.71 811.547C1174.67 796.765 1174.67 796.765 1162.37 804.425C1217.58 813.911 1248.25 853.368 1280.38 892.398C1294.74 909.842 1306.66 932.209 1336.69 943.477C1316.6 918.586 1300.62 899.519 1285.62 879.718C1281.65 874.479 1271.57 868.258 1279.36 860.664C1286.4 853.804 1290.11 865.321 1295.71 867.286C1339.06 882.49 1378.96 908.141 1429.81 895.053C1497.13 877.726 1538.48 836.512 1560.39 772.479C1562.96 764.975 1558.29 751.993 1569.41 751.088C1580.59 750.178 1582.21 763.603 1585.92 771.496C1624.15 852.971 1628.32 939.02 1618.4 1026.7C1617 1039.07 1570.54 1057.3 1561.09 1048.2C1543.98 1031.71 1520.69 1022.44 1508.92 999.234C1502.15 985.876 1489.91 974.849 1478.67 964.339C1465.99 952.483 1424.04 955.024 1405.5 967.195C1388.19 978.555 1399.64 993.187 1400.4 1006.89C1400.79 1014.09 1407.48 1020.99 1402.2 1028.6C1372.23 1023.76 1342.77 1018.14 1313.08 1014.5C1290.99 1011.8 1277.04 1025.6 1284.07 1046.45C1291.6 1068.83 1289.88 1092.09 1296.58 1114.24C1302.59 1134.13 1309.47 1153.04 1324.49 1168.08C1329.36 1172.96 1331.58 1181.38 1340.64 1180.16C1342.49 1179.91 1345.6 1177.06 1345.44 1175.74C1344.11 1164.97 1330.83 1175.3 1327.07 1162.83C1353.69 1153.5 1382.82 1164.45 1415.83 1154.64C1406.15 1151.62 1403.23 1150.04 1400.24 1149.89C1379.62 1148.79 1358.95 1148.59 1338.39 1146.89C1325.17 1145.8 1311.89 1136.3 1314.07 1124.86C1316.97 1109.64 1331.25 1121.25 1339.22 1123.23C1367.45 1130.23 1395.63 1133.67 1426.77 1132.98C1420.42 1122.24 1412.88 1124.04 1406.47 1122.9C1377.75 1117.76 1348.98 1112.88 1320.32 1107.45C1313.25 1106.1 1306.77 1101.74 1309.41 1093.36C1312.1 1084.81 1320.53 1084.98 1326.78 1087.82C1349.08 1097.94 1373.61 1096.14 1396.79 1101.6C1406 1103.77 1417.02 1108.9 1434.39 1101.11C1418.54 1097.09 1409.1 1094.63 1399.62 1092.3C1371.32 1085.35 1343.02 1078.43 1314.71 1071.54C1304.33 1069.01 1297.4 1062.8 1297.8 1051.86C1298.17 1041.69 1307.79 1045.18 1313.66 1043.26C1338.21 1035.23 1360.61 1046.9 1383.61 1051.57C1399.23 1054.74 1418.85 1069.12 1429.11 1059.73C1440.54 1049.27 1422.82 1032.19 1418.39 1017.9C1412.55 999.08 1415.34 987.686 1436.54 980.883C1469.15 970.419 1478.15 997.993 1491.24 1014.49C1509.03 1036.91 1521.53 1062.99 1543.88 1082.69C1572.6 1108.01 1578.3 1109.21 1606.39 1081.07C1611.25 1076.2 1616.48 1071.58 1620.67 1066.17C1628.4 1056.18 1634.01 1058.69 1639.98 1067.93C1650.03 1083.46 1661.19 1098.31 1670.51 1114.25C1674.14 1120.44 1677.66 1124.71 1684.03 1121.77C1690.05 1119 1687.23 1112.89 1685.52 1108.06C1677.55 1085.58 1664.35 1066.33 1645.46 1052.24C1634.75 1044.25 1632.33 1036 1634.05 1023.74C1641.15 972.992 1639.92 922.057 1632.07 871.667C1624.52 823.21 1615.46 774.574 1577.32 738.379C1578.96 737.008 1580.59 735.637 1582.23 734.265C1632.76 763.537 1686.88 780.936 1744.78 789.794C1796.93 797.77 1843.42 779.969 1864.11 736.067C1883.17 695.601 1892.07 652.465 1885.52 607.964C1879.49 566.997 1867.2 525.802 1824.76 509.319C1742.17 477.241 1660.62 476.805 1584.44 530.215C1560.86 546.746 1547.11 569.986 1536.06 595.628C1533.01 602.705 1530.33 616.293 1519.1 604.987C1490.8 576.503 1455.83 572.329 1418.86 574.71C1404.88 575.61 1401.18 570.974 1402.83 557.199C1408.17 512.768 1402.62 470.079 1377.06 430.981C1432.76 417.847 1462.04 377.942 1485.88 325.811C1495 379.633 1525.2 412.147 1564.34 434.498C1604.48 457.417 1652.25 456.059 1693.92 445.98C1775.52 426.241 1814.98 336.3 1786.78 248.98C1773.83 208.869 1740.52 186.768 1705.95 169.587C1641.14 137.371 1577.83 139.851 1519.93 191.17C1529.9 168.987 1535.7 146.805 1551.22 130.868C1562.73 119.051 1578.87 132.58 1592.51 127.858C1595.67 126.764 1598.89 125.778 1602.14 124.995C1625.51 119.366 1650.56 124.579 1668.87 133.862C1693.13 146.167 1712.13 168.137 1743.35 161.353C1745.36 160.915 1749.4 164.516 1750.76 167.142C1777.26 218.161 1824.01 250.571 1864.58 288.001C1879.24 301.53 1895.34 318.975 1916.09 323.783C1940.77 329.503 1943.54 347.107 1948.42 365.971C1937.61 369.024 1934.8 361.035 1929.87 357.026C1905.88 337.551 1883.48 316.067 1857.09 299.667C1852.78 296.992 1847.95 293.234 1843.85 299.518C1839.6 306.044 1845.97 308.045 1849.65 310.98C1866.09 324.096 1881.93 338.075 1899.11 350.126C1959.61 392.545 2008.92 443.177 2032.56 515.867C2045.31 555.082 2062.46 592.861 2077.63 631.288V672.709C2071.34 675.212 2072.84 681.08 2072.31 685.798C2068.22 722.303 2065.63 759.035 2060.05 795.305C2051.59 850.218 2022.99 897.038 1996.51 944.527C1996.38 946.838 1995.26 950.338 1996.32 951.223C1998.88 953.362 2000.31 950.567 2001.41 948.396C2017.64 935.676 2022.53 914.433 2037.84 896.788C2021.53 993.46 1896.07 1107.57 1830.97 1108.24C1840.3 1064.58 1853.3 1021.33 1844.67 975.644C1834.48 1011.57 1825.69 1047.79 1820.84 1084.54C1818.51 1102.14 1810.02 1113.29 1797.29 1121.66C1746.47 1155.04 1692.98 1179.68 1629.95 1180.82C1590.29 1181.54 1551.37 1171.23 1511.73 1176.02C1481.63 1179.66 1451.95 1176.18 1421.94 1172.55C1395.96 1169.4 1369.3 1171.89 1342.94 1171.89C1352.31 1178.3 1355.38 1192.75 1368.61 1187.57C1391.12 1178.75 1413.14 1182.07 1436.18 1188.7C1459.04 1195.27 1482.63 1199.91 1507.57 1193.53C1523.87 1189.36 1542.04 1189.17 1558.88 1191.24C1594.55 1195.62 1629.91 1201.02 1665.71 1193.03C1673.46 1191.3 1679.84 1194.37 1687.25 1201.05C1663.93 1217.22 1638.87 1225.51 1613.48 1231.4C1577.34 1239.78 1540.62 1245.65 1504.15 1252.6ZM1993.25 805.833C1979.15 826.283 1965.09 846.769 1950.93 867.173C1936.51 887.945 1918.77 905.22 1897.15 918.486C1890.72 922.433 1885.3 925.279 1879.75 917.041C1873.72 908.092 1881.66 907.883 1886.23 904.612C1912.42 885.873 1934.02 862.284 1952.6 836.337C1971.67 809.703 1987.62 781.106 1995.77 743.346C1972.43 760.397 1953.43 773.615 1935.32 787.964C1930.7 791.627 1927.83 794.407 1922.57 790.599C1916.91 786.506 1916.06 780.924 1917.57 774.527C1919.16 767.769 1925.17 765.14 1930.05 762.153C1972.65 736.053 1990.23 687.723 2025.09 654.706C2029.15 650.861 2028.6 641.838 2029.66 635.131C2040.22 568.095 2020.45 517.385 1953.31 491.626C1942.99 487.667 1933.68 481.06 1923.91 475.675C1857.98 439.356 1789.21 455.528 1720.85 464.819C1719.94 464.942 1719.4 467.711 1716.91 473.05C1756.28 461.911 1794.21 476.475 1832.2 466.325C1848.32 462.02 1867.11 463.865 1882.29 473.579C1911.7 492.397 1937.62 515.515 1959.58 542.767C1973.71 560.314 1977.67 579.011 1970.76 602.079C1955.2 654.008 1925.79 698.274 1898.44 743.91C1877.02 779.669 1886.09 796.462 1930.86 799.963C1910.07 829.104 1890.15 856.702 1870.63 884.578C1864.79 892.921 1858.01 901.582 1862.05 912.959C1876.57 953.783 1928.6 986.585 1964.9 982.374C1968.79 938.993 2010.27 911.972 2011.04 870.024C1994.36 902.853 1974.67 933.407 1951.11 961.354C1946.22 967.158 1942.05 978.266 1931.21 968.324C1921.37 959.305 1931.68 954.429 1935.89 949.515C1953.83 928.558 1972.54 908.064 1986.03 883.924C1994.54 868.707 2007.44 854.814 2008.38 829.048C1999.1 841.549 1993.53 848.925 1988.09 856.392C1968.29 883.567 1948.31 910.617 1923.94 933.952C1918.66 939.002 1911.06 947.74 1904.6 939.448C1899.03 932.301 1910.24 929.09 1914.71 924.783C1949.58 891.231 1981.88 855.95 1995.24 807.576C1996.2 806.806 1997.15 806.035 1998.11 805.264C1996.22 803.164 1994.62 803.496 1993.25 805.833ZM1827.75 806.023C1827.19 803.875 1826.63 801.727 1826.07 799.58C1791.18 809.804 1756.33 820.158 1721.38 830.201C1702.73 835.56 1684.77 836.746 1667.82 823.645C1661.33 818.628 1652.45 805.463 1644.83 816.004C1638.8 824.346 1655.38 829.361 1658.67 837.797C1660.89 843.523 1665.22 841.501 1669.03 842.249C1727.95 853.826 1776.04 822.776 1827.75 806.023ZM1849.35 856.353C1836.88 889.477 1840.52 922.971 1845.6 956.527C1850.95 923.257 1848.43 889.688 1849.35 856.353Z" fill="#707070"/>
<path d="M1498.98 98C1502.1 111.756 1489.32 113.109 1482.37 117.15C1455.9 132.527 1426.06 136.822 1396.17 139.458C1371.45 141.638 1346.6 142.392 1319.76 143.892C1328.63 122.552 1346.78 115.211 1365.3 107.658C1375.24 103.605 1387.44 107.056 1395.65 98H1498.98Z" fill="#707070"/>
<path d="M1235.1 761.698C1231.83 713.674 1252.39 686.755 1276 663.127C1314.21 624.903 1360.01 596.663 1413.25 586.861C1455.58 579.064 1502.07 592.238 1526.58 639.489C1562.6 708.952 1559.46 773.595 1514.11 829.692C1481.08 870.563 1437.58 887.025 1386.48 882.103C1336.89 877.325 1295.22 853.448 1258.85 820.683C1237.8 801.723 1234.57 788.099 1235.1 761.698ZM1275.76 721.529C1256.56 749.438 1259.54 768.395 1282.56 783.588C1313.85 804.232 1340.4 802.493 1356.71 776.872C1376.65 745.562 1387.44 709.882 1400.83 675.574C1407.88 657.538 1417.05 658.566 1429.07 668.752C1439.44 677.55 1442.09 687.235 1435.11 700.906C1421.02 728.483 1400.98 752.581 1389.66 781.733C1375.09 819.284 1389.5 844.537 1429.06 849.528C1456.82 853.028 1461.5 848.453 1469.81 809.725C1475.04 785.342 1464.97 766.236 1440.43 761.209C1420.13 757.049 1424.57 747.384 1434.57 739.657C1468.44 713.475 1453.7 665.748 1481.32 637.257C1481.65 636.917 1481.22 635.528 1480.81 634.824C1475.14 625.064 1468.59 615.197 1457.83 611.591C1447.95 608.284 1435.79 608.822 1430.84 620.044C1425.53 632.062 1415.38 637.204 1405.87 643.941C1392.85 653.169 1383.61 665.062 1379.66 681.005C1376.05 695.592 1371.49 709.944 1365.96 729.233C1349.74 706.091 1333.19 689.55 1307.32 707.408C1291.4 718.398 1280.48 732.387 1288.17 753.022C1298.79 781.52 1322.78 772.789 1347.83 769.196C1332.5 788.153 1317.23 786.422 1301.22 781.403C1269.94 771.588 1274.89 745.944 1275.76 721.529Z" fill="#707070"/>
<path d="M1871.15 645.856C1870.89 649.221 1871.16 658.848 1869.29 668.041C1844.61 789.788 1808 783.968 1717.92 769.902C1698.58 766.883 1679.75 760.359 1660.84 754.928C1619.98 743.194 1588.31 723.295 1581.07 675.853C1578.32 657.851 1568.99 639.823 1558.92 624.238C1546.13 604.454 1551.93 589.518 1563.63 572.86C1594.56 528.809 1640 509.762 1690.12 502.286C1717.78 498.16 1747.05 499.342 1774.92 503.158C1837.92 511.788 1871.64 561.402 1871.15 645.856ZM1782.5 674.106C1757.47 688.069 1748.34 713.661 1761.36 732.318C1772.42 748.16 1788.19 759.433 1807.69 751.4C1828.82 742.698 1835.11 707.051 1820.87 685.956C1816.19 679.025 1809.67 672.876 1802.86 667.951C1785.12 655.135 1765.01 648.273 1743.1 646.75C1729.4 645.797 1715.72 644.354 1702.01 643.434C1681.38 642.049 1691.82 627.416 1692.3 618.527C1692.95 606.496 1701.34 605.777 1710.79 610.312C1729.3 619.192 1750.57 623.797 1767.18 634.031C1789.4 647.723 1804.83 639.616 1819.98 627.81C1839.96 612.235 1838.81 590.31 1829.38 569.228C1820.78 550.029 1807.66 536.146 1783.11 538.345C1784.45 553.199 1800.63 549.017 1802.36 561.58C1787.81 562.136 1772.06 552.529 1759.68 567.081C1747.2 581.746 1757.87 598.199 1756.33 613.849C1743.23 614.251 1733.94 607.536 1724.11 603.018C1675.92 580.866 1675.43 581.078 1674.11 635.224C1673.87 645.411 1671.43 658.981 1684.43 660.766C1702.13 663.197 1717.28 677.029 1738.23 668.396C1750.22 663.455 1767.08 665.293 1782.5 674.106ZM1646.65 605.269C1646.96 594.235 1653.18 584.795 1641.97 581.88C1634.03 579.813 1627.81 586.003 1622.66 592.048C1609.78 607.162 1610.35 624.762 1612.69 642.933C1614.59 657.756 1625.48 663.576 1637.35 663.458C1651.92 663.315 1653.84 649.983 1652.98 638.817C1652 626.235 1648.36 613.862 1646.65 605.269Z" fill="#707070"/>
<path d="M1640.85 435.626C1573.62 436.152 1520.87 401.664 1504.54 346.492C1483.9 276.745 1503.62 214.859 1561.03 179.062C1594.68 158.082 1630.18 154.53 1669.58 170.244C1708.76 185.868 1746.37 200.744 1767.26 240.201C1802.66 307.062 1778.6 432.936 1658.91 434.873C1652.88 434.97 1646.87 435.386 1640.85 435.626ZM1665.61 227.919C1660.69 223.706 1663.65 218.564 1663.72 213.648C1664.11 186.504 1647.63 170.502 1620.26 171.331C1601.26 171.906 1592.84 185.858 1584.65 199.994C1575.31 216.115 1594.82 214.381 1598.77 222.518C1605.7 236.799 1623.44 229.564 1635.07 237.223C1627.67 246.791 1621.1 254.668 1615.2 263.024C1587.34 302.518 1593.45 315.985 1641.51 320.131C1658.1 321.562 1669.95 316.266 1671.75 296.661C1672.77 285.603 1668.9 273.1 1677.12 262.504C1705.64 286.788 1710.5 286.494 1743.72 256.049C1752.58 247.93 1746.95 238.825 1741.78 230.835C1727.12 208.166 1712.94 207.672 1665.61 227.919ZM1669.23 342.118C1651.5 343.795 1642.61 336.784 1632.54 333.556C1622.35 330.289 1610.76 330.782 1599.78 330.767C1588.17 330.751 1584.79 334.394 1592.32 346.061C1605.15 365.949 1634.33 366.717 1669.23 342.118Z" fill="#707070"/>
<path d="M1179.85 495.871C1181.86 469.995 1172.42 459.125 1150.29 460.661C1139.63 461.4 1126.57 457.922 1123.82 449.606C1120.6 439.898 1134.5 435.717 1142.03 431.861C1173.6 415.707 1205.01 403.594 1242.56 400.798C1282.6 397.817 1314.26 405.898 1346.57 427.1C1384.63 452.07 1409.08 527.684 1388.39 567.823C1383.76 576.819 1374.79 582.543 1365.36 587.472C1324.25 608.968 1284.08 631.576 1250.9 665.34C1230.62 685.966 1183.87 684.251 1160.7 662.577C1122.2 626.559 1102.64 580.473 1096.02 528.62C1095.18 522.068 1093.38 514.092 1100.81 509.935C1108.54 505.607 1109.57 515.786 1114.55 517.553C1130.41 523.186 1146.86 523.77 1162.07 516.963C1182.34 507.892 1201.75 496.88 1221.46 486.562C1228.5 482.876 1235 479.614 1242.43 486.351C1246.94 490.441 1247.34 495.188 1246.92 500.261C1246.05 510.589 1237.03 508.051 1231.05 509.325C1211.76 513.437 1192.19 516.693 1174.19 525.125C1154.53 534.338 1140.62 548.811 1137.31 571.272C1134.55 590.029 1142.18 604.305 1159.96 609.678C1176.07 614.548 1191.58 616.816 1203.92 596.937C1215.01 579.075 1228.2 566.103 1206.64 546.643C1198.98 539.731 1209.8 535.741 1216.13 533.714C1231.58 528.758 1247.32 524.627 1262.6 519.189C1282.19 512.218 1278.21 498.952 1271.95 484.003C1266.08 469.972 1261.41 459.818 1242.3 466.72C1222.16 473.991 1203.2 483.51 1179.85 495.871ZM1307.83 507.331C1333.94 473.012 1330.58 455.977 1295.77 445.459C1298.29 466.4 1296.44 487.656 1307.83 507.331Z" fill="#707070"/>
<path d="M1228.21 694.05C1224.91 713.747 1214.96 720.009 1197.4 724.09C1135.65 738.445 1108.78 787.119 1090.37 841.978C1084.41 859.747 1083.58 879.068 1075.14 896.278C1072.87 900.896 1072.11 906.275 1065.12 905.671C1059.78 905.211 1058.24 900.922 1056.6 897.156C1046.37 873.608 1037.48 850.916 1039.89 823.178C1044.36 771.603 1044.57 719.742 1008.17 675.87C997.56 663.086 997.971 645.362 997.455 628.878C997.011 614.717 1000.83 598.929 985.05 589.482C981.29 587.232 982.314 584.141 983.443 580.723C998.61 534.808 1011.75 487.57 1064.01 468.184C1071.1 465.555 1077.21 460.767 1085.27 465.426C1095.2 471.168 1086.7 477.561 1085.96 483.312C1077.01 552.995 1095.83 613.726 1143.08 665.745C1166.04 691.021 1195.12 697.291 1228.21 694.05Z" fill="#707070"/>
<path d="M1348.55 224.572C1376.42 218.464 1386.72 204.419 1391.2 175.702C1392.28 168.803 1401.52 163.222 1412.42 168.576C1473.92 198.807 1484.47 232.229 1477.78 295.618C1472.36 346.997 1444.87 384.977 1399.69 410.093C1381.9 419.985 1366.06 421.506 1346.93 409.804C1317.43 391.765 1284.8 380.559 1249.08 382.589C1242.38 382.969 1234.97 384.125 1229.91 377.775C1197.62 337.271 1170.13 274.979 1218.74 227.022C1220.38 225.398 1222.76 224.518 1224.76 223.309C1226.31 225.031 1228.42 226.395 1228.25 227.332C1225.9 239.935 1219.96 255.994 1233.54 262.482C1247.14 268.979 1264.8 276.439 1279.76 263.187C1293.11 251.361 1301.22 253.52 1307.85 269.73C1313.05 282.42 1320.39 300.262 1332.95 299.475C1351.98 298.283 1369.41 285.594 1385.5 274.12C1393.93 268.109 1387.04 261.392 1383.47 256.319C1374.98 244.276 1363.39 235.242 1348.55 224.572ZM1404.17 300.661C1382.34 299.182 1364.48 303.629 1348.52 314.071C1341.92 318.393 1331.78 323.957 1336.72 333.652C1340.81 341.669 1351.04 341.621 1359.78 340.035C1381.38 336.114 1397.34 325.513 1404.17 300.661Z" fill="#707070"/>
<path d="M929.904 548.265C934.069 533.367 937.137 517.226 943.089 502.234C953.818 475.208 967.412 449.305 977.735 422.141C992.577 383.09 1023.54 366.83 1061.12 358.892C1086.23 353.588 1103.11 369.135 1120.17 383.623C1121.33 384.604 1122.07 386.527 1122.28 388.107C1123.94 400.883 1149.64 402.485 1141.5 413.026C1130.49 427.272 1115.93 442.021 1094.8 445.347C1035.83 454.63 996.196 486.09 982.891 546.459C981.971 550.634 982.08 555.386 980.045 558.901C973.021 571.032 969.709 591.57 952.896 588.955C934.293 586.06 935.384 564.428 929.904 548.265Z" fill="#707070"/>
<path d="M1069.67 342.595C1103.02 301.017 1139.88 268.934 1175.49 235.619C1179.49 231.871 1184.11 229.49 1189.29 233.062C1192.45 235.242 1192.62 238.585 1190.85 242.101C1164.22 294.99 1187.22 339.693 1215.97 385.558C1200.35 391.356 1185.59 396.706 1170.94 402.315C1159 406.884 1153.91 397.159 1147.5 390.963C1126.02 370.185 1104.92 348.986 1069.67 342.595Z" fill="#707070"/>
<path d="M1019.59 362.529C1006.82 361.975 1007.92 356.39 1012.73 349.257C1022.29 335.081 1031.04 320.268 1041.57 306.852C1068.15 272.983 1101.36 245.596 1131.39 215.162C1147.08 199.26 1156.5 214.626 1168.48 213.564C1175.49 212.943 1170.29 222.355 1167.75 225.087C1159.62 233.852 1150.71 241.974 1141.56 249.7C1111.37 275.2 1081.61 301.262 1060.12 334.874C1049.88 350.901 1033.48 355.302 1019.59 362.529Z" fill="#707070"/>
<path d="M1538.78 119.868C1533.16 130.995 1528.09 139.031 1524.87 147.751C1516.43 170.612 1501.19 191.178 1501.15 216.916C1501.14 223.299 1499.25 229.821 1492.99 231.073C1486.53 232.363 1486.03 224.741 1484.36 220.519C1475.22 197.298 1459.88 179.677 1438.95 166.27C1427.44 158.897 1425.53 149.997 1440.67 144.794C1465.8 136.153 1490.23 127.003 1511.52 109.937C1525.67 98.594 1525.62 124.408 1538.78 119.868Z" fill="#707070"/>
<path d="M1376.86 261.716C1359.58 262.739 1348.67 262.635 1341.16 270.935C1329.67 283.636 1322.84 279.745 1317.69 265.64C1314.75 257.589 1310.46 249.922 1308.43 241.673C1303.18 220.347 1293.53 204.799 1268.44 206.671C1262.46 207.117 1259.68 202.203 1254.9 199.232C1269.2 187.387 1285.56 180.248 1302.68 174.751C1312.4 171.63 1323.42 171.512 1319.48 185.717C1311.3 215.226 1333.77 227.06 1350.34 240.964C1357.33 246.836 1364.2 252.507 1376.86 261.716Z" fill="#707070"/>
<path d="M1207.1 567.041C1202.45 580.298 1194.65 590.157 1179.63 589.332C1169.75 588.789 1164.07 580.974 1165.16 571.748C1167.29 553.712 1182.38 556.838 1194.75 555.26C1204.75 553.985 1205.92 560.133 1207.1 567.041Z" fill="#707070"/>
<path d="M1169.65 485.592C1166.75 496.351 1157.96 499.776 1148.19 499.459C1140.08 499.196 1132.6 494.537 1133.25 485.254C1134.31 470.282 1149.12 476.35 1157.15 472.438C1162.07 470.042 1169.39 476.818 1169.65 485.592Z" fill="#707070"/>
<path d="M1881.48 263.251C1858.54 261.542 1867.62 240.688 1862.09 228.866C1860.69 225.855 1869.01 223.978 1874.35 226.842C1883.03 231.503 1889.54 237.76 1892.4 247.399C1891.36 248.375 1890.32 249.351 1889.28 250.326C1874.03 247.163 1885.6 260.575 1880.9 263.933L1881.48 263.251Z" fill="#707070"/>
<path d="M1815.1 195.149C1824.32 198.283 1832.48 199.08 1837.78 203.394C1843.37 207.94 1846.28 216.066 1845.02 223.958C1844.58 226.706 1841.36 230.951 1839.15 231.123C1830.81 231.774 1828.29 223.801 1825.13 218.444C1821.39 212.124 1814.17 207.335 1815.1 195.149Z" fill="#707070"/>
<path d="M1357.4 181.344C1364.47 183.25 1370.22 186.524 1370.91 194.492C1371.63 202.821 1366.94 207.059 1359.08 207.815C1351.69 208.526 1345.16 206.92 1344.47 197.959C1343.75 188.76 1350.32 184.721 1357.4 181.344Z" fill="#707070"/>
<path d="M1267.61 230.31C1273.36 231.059 1281.77 231.029 1280.67 238.638C1279.61 245.912 1277.48 255.86 1265.22 254.38C1258.38 253.554 1250.18 254.644 1249.88 245.058C1249.51 233.621 1258.92 232.057 1267.61 230.31Z" fill="#707070"/>
<path d="M1577.32 738.379C1563.87 728.423 1559.41 711.366 1566.09 681.071C1572.78 703.108 1577.51 718.687 1582.23 734.265C1580.59 735.637 1578.96 737.008 1577.32 738.379Z" fill="#707070"/>
<path d="M1892.4 247.399C1902.61 258.078 1902.61 258.078 1900.28 283.183C1898.03 272.35 1880.55 277.399 1881.48 263.252L1880.9 263.933C1883.96 265.088 1889.06 267.94 1889.73 267.12C1894.15 261.78 1890.25 255.983 1889.28 250.326C1890.32 249.351 1891.36 248.375 1892.4 247.399Z" fill="#707070"/>
<path d="M1348.48 731.609C1344.03 749.096 1336.58 762.861 1318.67 763.871C1306.64 764.549 1296.4 757.404 1298.13 743.594C1300.15 727.531 1307.19 714.179 1326.57 713.464C1340.34 712.955 1343.02 724.295 1348.48 731.609Z" fill="#707070"/>
<path d="M1416.59 799.035C1418.58 787.618 1421.34 772.129 1433.27 773.855C1443.44 775.327 1458.21 783.275 1457.96 799.773C1457.75 813.179 1451.38 825.227 1438.32 825.822C1422.56 826.541 1419.15 811.867 1416.59 799.035Z" fill="#707070"/>
<path d="M1780.67 569.808C1789.27 579.022 1809.83 577.13 1808.08 596.248C1807.4 603.734 1803.15 614.515 1789.94 611.78C1775.13 608.711 1764.72 600.391 1762.99 585.564C1761.87 575.886 1770.47 571.406 1780.67 569.808Z" fill="#707070"/>
<path d="M1767.08 703.496C1767.38 698.505 1770.32 687.795 1781.97 689.049C1793.1 690.248 1801.56 698.471 1800.36 711.846C1799.32 723.335 1792.88 733.351 1781.72 732.285C1770.59 731.221 1766.4 720.066 1767.08 703.496Z" fill="#707070"/>
<path d="M1666.65 231.319C1661.37 248.207 1654.22 261.056 1654.73 275.901C1654.91 281.14 1657.89 289.661 1649.01 290.205C1642.63 290.595 1635.23 288.508 1629.72 285.166C1623.14 281.186 1626.55 274.25 1629.51 269.219C1638.04 254.75 1645.62 239.229 1666.65 231.319Z" fill="#707070"/>
<path d="M1722.73 252.667C1721.09 262.204 1715.08 266.181 1706.48 265.452C1698.59 264.784 1690.39 261.748 1692 251.984C1693.28 244.181 1699.53 238.113 1708.2 238.406C1716.75 238.694 1721.88 244.09 1722.73 252.667Z" fill="#707070"/>
<path d="M1639.46 211.06C1637.31 220.708 1630.82 223.478 1622.41 223.327C1615.15 223.196 1607.88 221.341 1607.75 212.844C1607.58 202.52 1615.98 198.298 1624.56 197.16C1634.28 195.87 1634.92 206.057 1639.46 211.06Z" fill="#707070"/>
</g>
</g>
</svg>
