<svg width="1920" height="498" viewBox="0 0 1920 498" fill="none" xmlns="http://www.w3.org/2000/svg">
<rect width="1920" height="498" fill="url(#paint0_linear_113_6)"/>
<g opacity="0.13">
<path d="M457.648 403.565C458.142 403.565 458.635 403.434 459.072 403.174L590.237 325.106L721.402 403.174C722.279 403.695 723.373 403.695 724.25 403.174L855.79 324.882L987.33 403.174C988.206 403.695 989.301 403.695 990.178 403.174L1121.34 325.106L1252.51 403.174C1253.38 403.696 1254.48 403.695 1255.36 403.171L1386.39 324.742L1518.16 403.174C1519.04 403.695 1520.13 403.695 1521.01 403.174L1652.18 325.106L1783.34 403.174C1784.22 403.695 1785.31 403.695 1786.19 403.174L1918.64 324.339C1919.96 323.553 1920.39 321.846 1919.61 320.528C1918.82 319.206 1917.12 318.777 1915.8 319.56L1784.77 397.546L1653.6 319.48C1652.72 318.958 1651.63 318.958 1650.75 319.48L1519.59 397.546L1387.81 319.114C1386.93 318.59 1385.83 318.591 1384.95 319.116L1253.93 397.544L1122.76 319.48C1121.88 318.958 1120.8 318.958 1119.92 319.48L988.752 397.546L857.182 319.239C856.256 318.689 855.102 318.72 854.21 319.318L853.729 319.64L722.827 397.546L591.661 319.48C590.785 318.958 589.691 318.958 588.816 319.48L457.648 397.546L325.869 319.114C324.992 318.59 323.894 318.591 323.017 319.116L191.988 397.544L60.8281 319.48C59.5019 318.694 57.7949 319.128 57.0146 320.446C56.2285 321.766 56.6601 323.474 57.9794 324.26L190.571 403.174C191.448 403.696 192.542 403.695 193.42 403.171L324.451 324.742L456.227 403.174C456.666 403.434 457.155 403.565 457.648 403.565Z" fill="white"/>
<circle cx="1652.53" cy="362.589" r="7.6759" fill="white"/>
<circle cx="1782.68" cy="362.589" r="7.6759" fill="white"/>
<circle cx="1520.37" cy="362.589" r="7.6759" fill="white"/>
<circle cx="1388.21" cy="362.589" r="7.6759" fill="white"/>
<circle cx="1256.05" cy="362.589" r="7.6759" fill="white"/>
<circle cx="1123.89" cy="362.589" r="7.6759" fill="white"/>
<circle cx="991.733" cy="362.589" r="7.6759" fill="white"/>
<circle cx="859.574" cy="362.589" r="7.6759" fill="white"/>
<circle cx="727.414" cy="362.589" r="7.6759" fill="white"/>
<circle cx="595.256" cy="362.589" r="7.6759" fill="white"/>
<circle cx="463.097" cy="362.589" r="7.6759" fill="white"/>
<circle cx="330.937" cy="362.589" r="7.6759" fill="white"/>
<circle cx="198.779" cy="362.589" r="7.6759" fill="white"/>
<circle cx="66.6208" cy="362.589" r="7.6759" fill="white"/>
</g>
<g opacity="0.13">
<path d="M402.026 489C402.52 489 403.01 488.87 403.45 488.609L534.614 410.542L665.78 488.609C666.657 489.13 667.751 489.13 668.626 488.609L800.167 410.318L931.706 488.609C932.583 489.13 933.676 489.13 934.553 488.609L1065.72 410.542L1196.88 488.609C1197.76 489.132 1198.86 489.13 1199.73 488.606L1330.77 410.177L1462.54 488.609C1463.42 489.13 1464.51 489.13 1465.39 488.609L1596.55 410.542L1727.72 488.609C1728.6 489.13 1729.68 489.13 1730.57 488.609L1863.02 409.775C1864.34 408.989 1864.77 407.283 1863.98 405.963C1863.2 404.641 1861.49 404.213 1860.17 404.995L1729.14 482.983L1597.98 404.915C1597.1 404.393 1596.01 404.393 1595.13 404.915L1463.97 482.983L1332.18 404.549C1331.31 404.026 1330.21 404.027 1329.33 404.552L1198.3 482.979L1067.14 404.915C1066.26 404.393 1065.17 404.393 1064.29 404.915L933.13 482.983L801.557 404.675C800.633 404.124 799.479 404.155 798.587 404.754L798.106 405.077L667.202 482.983L536.038 404.915C535.161 404.393 534.069 404.393 533.19 404.915L402.026 482.983L270.247 404.549C269.37 404.026 268.274 404.027 267.391 404.552L136.366 482.979L5.20379 404.915C3.87762 404.13 2.17254 404.563 1.39325 405.884C0.606137 407.202 1.03778 408.909 2.35614 409.695L134.946 488.609C135.823 489.132 136.919 489.13 137.799 488.606L268.825 410.177L400.604 488.609C401.042 488.87 401.536 489 402.026 489Z" fill="white"/>
<circle cx="1596.91" cy="448.025" r="7.6759" fill="white"/>
<circle cx="1727.06" cy="448.025" r="7.6759" fill="white"/>
<circle cx="1464.75" cy="448.025" r="7.6759" fill="white"/>
<circle cx="1332.59" cy="448.025" r="7.6759" fill="white"/>
<circle cx="1200.43" cy="448.025" r="7.6759" fill="white"/>
<circle cx="1068.27" cy="448.025" r="7.6759" fill="white"/>
<circle cx="936.11" cy="448.025" r="7.6759" fill="white"/>
<circle cx="803.952" cy="448.025" r="7.6759" fill="white"/>
<circle cx="671.792" cy="448.025" r="7.6759" fill="white"/>
<circle cx="539.634" cy="448.025" r="7.6759" fill="white"/>
<circle cx="407.475" cy="448.025" r="7.6759" fill="white"/>
<circle cx="275.315" cy="448.025" r="7.6759" fill="white"/>
<circle cx="143.157" cy="448.025" r="7.6759" fill="white"/>
<circle cx="10.997" cy="448.025" r="7.6759" fill="white"/>
</g>
<defs>
<linearGradient id="paint0_linear_113_6" x1="3180" y1="1080.08" x2="500" y2="1080.08" gradientUnits="userSpaceOnUse">
<stop stop-color="#0E7615"/>
<stop offset="1" stop-color="#004F2B"/>
</linearGradient>
</defs>
</svg>
