<svg width="1920" height="1078" viewBox="0 0 1920 1078" fill="none" xmlns="http://www.w3.org/2000/svg">
<rect width="1920" height="1078" fill="url(#paint0_linear_42_637)"/>
<g opacity="0.13">
<path d="M456.648 91.5646C457.142 91.5646 457.635 91.4343 458.072 91.1745L589.237 13.1061L720.402 91.1745C721.279 91.695 722.373 91.695 723.25 91.1745L854.79 12.8825L986.33 91.1745C987.206 91.695 988.301 91.695 989.178 91.1745L1120.34 13.1061L1251.51 91.1745C1252.38 91.6965 1253.48 91.695 1254.36 91.1711L1385.39 12.7419L1517.16 91.1745C1518.04 91.695 1519.13 91.695 1520.01 91.1745L1651.18 13.1061L1782.34 91.1745C1783.22 91.695 1784.31 91.695 1785.19 91.1745L1917.64 12.3395C1918.96 11.5534 1919.39 9.84638 1918.61 8.52802C1917.82 7.20624 1916.12 6.77753 1914.8 7.55975L1783.77 85.5461L1652.6 7.48016C1651.72 6.9577 1650.63 6.9577 1649.75 7.48016L1518.59 85.5461L1386.81 7.11395C1385.93 6.59003 1384.83 6.59149 1383.95 7.11591L1252.93 85.5441L1121.76 7.48016C1120.88 6.9577 1119.8 6.9577 1118.92 7.48016L987.752 85.5461L856.182 7.23895C855.256 6.68915 854.102 6.7204 853.21 7.31854L852.729 7.63983L721.827 85.5461L590.661 7.48016C589.785 6.9577 588.691 6.9577 587.816 7.48016L456.648 85.5461L324.869 7.11395C323.992 6.59003 322.894 6.59149 322.017 7.11591L190.988 85.5441L59.8281 7.48016C58.5019 6.69403 56.7949 7.12763 56.0146 8.44598C55.2285 9.7663 55.6601 11.4738 56.9794 12.2599L189.571 91.1745C190.448 91.6965 191.542 91.695 192.42 91.1711L323.451 12.7419L455.227 91.1745C455.666 91.4343 456.155 91.5646 456.648 91.5646Z" fill="white"/>
<circle cx="1651.53" cy="50.589" r="7.6759" fill="white"/>
<circle cx="1781.68" cy="50.589" r="7.6759" fill="white"/>
<circle cx="1519.37" cy="50.589" r="7.6759" fill="white"/>
<circle cx="1387.21" cy="50.589" r="7.6759" fill="white"/>
<circle cx="1255.05" cy="50.589" r="7.6759" fill="white"/>
<circle cx="1122.89" cy="50.589" r="7.6759" fill="white"/>
<circle cx="990.733" cy="50.589" r="7.6759" fill="white"/>
<circle cx="858.574" cy="50.589" r="7.6759" fill="white"/>
<circle cx="726.414" cy="50.589" r="7.6759" fill="white"/>
<circle cx="594.256" cy="50.589" r="7.6759" fill="white"/>
<circle cx="462.097" cy="50.589" r="7.6759" fill="white"/>
<circle cx="329.937" cy="50.589" r="7.6759" fill="white"/>
<circle cx="197.779" cy="50.589" r="7.6759" fill="white"/>
<circle cx="65.6208" cy="50.589" r="7.6759" fill="white"/>
</g>
<g opacity="0.13">
<path d="M401.026 177C401.52 177 402.01 176.87 402.45 176.609L533.614 98.5418L664.78 176.609C665.657 177.13 666.751 177.13 667.626 176.609L799.167 98.318L930.706 176.609C931.583 177.13 932.676 177.13 933.553 176.609L1064.72 98.5418L1195.88 176.609C1196.76 177.132 1197.86 177.13 1198.73 176.606L1329.77 98.1773L1461.54 176.609C1462.42 177.13 1463.51 177.13 1464.39 176.609L1595.55 98.5418L1726.72 176.609C1727.6 177.13 1728.68 177.13 1729.57 176.609L1862.02 97.7752C1863.34 96.9894 1863.77 95.2835 1862.98 93.9632C1862.2 92.6415 1860.49 92.2127 1859.17 92.9955L1728.14 170.983L1596.98 92.9156C1596.1 92.3932 1595.01 92.3932 1594.13 92.9156L1462.97 170.983L1331.18 92.5494C1330.31 92.0257 1329.21 92.0272 1328.33 92.5526L1197.3 170.98L1066.14 92.9156C1065.26 92.3932 1064.17 92.3932 1063.29 92.9156L932.13 170.983L800.557 92.6747C799.633 92.1241 798.479 92.1554 797.587 92.7542L797.106 93.0768L666.202 170.983L535.038 92.9156C534.161 92.3932 533.069 92.3932 532.19 92.9156L401.026 170.983L269.247 92.5494C268.37 92.0257 267.274 92.0272 266.391 92.5526L135.366 170.98L4.20379 92.9156C2.87762 92.13 1.17254 92.5636 0.393246 93.8836C-0.393863 95.2025 0.0377777 96.9093 1.35614 97.6954L133.946 176.609C134.823 177.132 135.919 177.13 136.799 176.606L267.825 98.1773L399.604 176.609C400.042 176.87 400.536 177 401.026 177Z" fill="white"/>
<circle cx="1595.91" cy="136.025" r="7.6759" fill="white"/>
<circle cx="1726.06" cy="136.025" r="7.6759" fill="white"/>
<circle cx="1463.75" cy="136.025" r="7.6759" fill="white"/>
<circle cx="1331.59" cy="136.025" r="7.6759" fill="white"/>
<circle cx="1199.43" cy="136.025" r="7.6759" fill="white"/>
<circle cx="1067.27" cy="136.025" r="7.6759" fill="white"/>
<circle cx="935.11" cy="136.025" r="7.6759" fill="white"/>
<circle cx="802.952" cy="136.025" r="7.6759" fill="white"/>
<circle cx="670.792" cy="136.025" r="7.6759" fill="white"/>
<circle cx="538.634" cy="136.025" r="7.6759" fill="white"/>
<circle cx="406.475" cy="136.025" r="7.6759" fill="white"/>
<circle cx="274.315" cy="136.025" r="7.6759" fill="white"/>
<circle cx="142.157" cy="136.025" r="7.6759" fill="white"/>
<circle cx="9.99702" cy="136.025" r="7.6759" fill="white"/>
</g>
<defs>
<linearGradient id="paint0_linear_42_637" x1="3180" y1="2338" x2="500" y2="2338" gradientUnits="userSpaceOnUse">
<stop stop-color="#8CE7FF"/>
<stop offset="0.614583" stop-color="#E39929"/>
</linearGradient>
</defs>
</svg>
