<svg width="427" height="406" viewBox="0 0 427 406" fill="none" xmlns="http://www.w3.org/2000/svg">
<path d="M163.255 121.906C163.938 132.058 165.65 141.979 168.382 151.448L154.698 165.132C150.02 151.448 147.052 136.962 146.031 121.906H163.255ZM275.716 259.009C285.412 261.742 295.335 263.453 305.376 264.143V281.133C290.318 280.112 275.834 277.144 262.032 272.584L275.716 259.009ZM174.2 99.0923H134.279C128.006 99.0923 122.872 104.226 122.872 110.499C122.872 217.604 209.676 304.402 316.783 304.402C323.055 304.402 328.189 299.274 328.189 292.995V253.192C328.189 246.92 323.055 241.786 316.783 241.786C302.636 241.786 288.835 239.5 276.061 235.284C274.923 234.828 273.667 234.713 272.521 234.713C269.561 234.713 266.711 235.851 264.427 238.017L239.335 263.114C207.054 246.574 180.59 220.228 164.166 187.947L189.257 162.854C192.452 159.661 193.363 155.209 192.107 151.22C187.891 138.447 185.607 124.755 185.607 110.499C185.607 104.226 180.472 99.0923 174.2 99.0923Z" fill="white" stroke="white" stroke-width="3"/>
<path d="M3.34473 403L48.0338 287.082C37.3653 263.792 26.0896 232.014 26.0896 201.74C26.0896 91.7714 115.557 2.31006 225.52 2.31006C335.491 2.31006 424.959 91.7714 424.959 201.74C424.959 311.711 335.491 401.172 225.52 401.172C191.921 401.172 146.052 381.567 128.303 373.342L3.34473 403ZM132.23 336.953L137.764 339.642C165.401 353.103 203.259 366.669 225.52 366.669C316.465 366.669 390.455 292.686 390.455 201.74C390.455 110.795 316.465 36.8129 225.52 36.8129C134.583 36.8129 60.5931 110.795 60.5931 201.74C60.5931 229.957 74.1944 262.17 82.3028 278.868L85.5806 285.612L59.1026 354.302L132.23 336.953Z" fill="white" stroke="white" stroke-width="3"/>
</svg>
